<?xml version="1.0" encoding="utf-8"?>
<!-- Generator: Adobe Illustrator 18.0.0, SVG Export Plug-In . SVG Version: 6.00 Build 0)  -->
<!DOCTYPE svg PUBLIC "-//W3C//DTD SVG 1.1//EN" "http://www.w3.org/Graphics/SVG/1.1/DTD/svg11.dtd">
<svg version="1.1" id="Layer_1" xmlns:sketch="http://www.bohemiancoding.com/sketch/ns"
	 xmlns="http://www.w3.org/2000/svg" xmlns:xlink="http://www.w3.org/1999/xlink" x="0px" y="0px" viewBox="0 0 1547 241"
	 enable-background="new 0 0 1547 241" xml:space="preserve">
<title>space-lover-h</title>
<desc>Created with Sketch.</desc>
<g id="Page-1" sketch:type="MSPage">
	<g id="icon" transform="translate(-107.000000, -7.000000)" sketch:type="MSLayerGroup">
		<path id="Fill-1" sketch:type="MSShapeGroup" fill="#FFFFFF" d="M202.4,151.4h-0.5l5.6-33.4c4.3-0.5,6.4-1.3,8.4-3.3L193.2,97
			l-10,11h-2.8l6.1-31.9c4.6-0.5,6.6-1.3,8.7-3.3L172,54.6l-10.2,11H135c7.9-13.8,14.6-27.6,20.2-40.9c6.9,0.8,9.5-1,11-4.1
			l-35.5-13c-6.1,18.4-14,38-24.3,58h-97l1.5,5.1h92.9C79.6,117.2,44.3,164.4-0.4,197.6l2.6,3.1c23.2-12.5,43.9-27.6,62-44.4h140.4
			c-3.6,36-9.4,58.5-16.1,63.6c-2.6,1.8-4.6,1.8-8.7,1.8c-5.6,0-20.9-0.3-28.9-0.8l-0.3,3.8c22,3.6,24.3,9.2,24.3,23.2
			c32.2,0,47-8.9,54.6-85.5c4.9-0.8,8.2-2,10-4.3l-26.3-19.9L202.4,151.4L202.4,151.4z M178.4,151.4h-109
			c12.8-12.3,24.3-25.3,34.5-38.6h80.9L178.4,151.4L178.4,151.4z M155.6,108h-48c8.9-12.3,17.1-24.8,24.5-37.3H163L155.6,108
			L155.6,108z M142.9,169.8c9.2,6.9,17.9,19.7,20.4,30.4c3.1,2.6,6.1,3.6,8.9,3.6c6.6,0,12.5-6.1,12.5-13.3c0-9.5-10-20.9-40.3-22.7
			L142.9,169.8L142.9,169.8z M40.5,10.2c9.4,11.2,16.3,30.1,16.3,45.2c3.8,4.6,8.2,6.4,12.3,6.4c8.4,0,15.8-7.4,15.8-17.1
			c0-11.5-10.5-26.3-42.4-36L40.5,10.2L40.5,10.2z M106.4,175.1c7.7,9.7,13.5,25.8,13.3,38.3c3.3,3.8,7.2,5.6,10.7,5.6
			c7.1,0,13.8-6.6,13.8-15.1c0-9.7-8.7-22.2-35.2-30.4L106.4,175.1L106.4,175.1z M74.7,179.2c1.5,5.4,2.3,11.7,2.3,18.6
			c0,8.9-1.3,18.4-4.1,26c2.8,5.9,7.4,8.4,12.3,8.4c8.2,0,16.3-7.7,16.3-19.2c0-9.7-6.1-22.2-23.7-35L74.7,179.2L74.7,179.2z
			 M47.6,181c0,14.8-11,26.8-21.4,30.9c-6.1,2.8-11.5,7.9-11.5,14.3c0,6.6,5.1,12.3,14.8,12.3c14.6,0,26.6-13,26.6-33.7
			c0-7.1-1.5-15.1-4.6-24L47.6,181L47.6,181z M390.3,47.7c15.1,0,17.6,1,23.2,32.7H426l-6.1-46H280l-6.1,46h12.8
			c5.4-31.4,7.7-32.7,23-32.7h24.8v145.8c0,18.9-1.3,21.2-23.5,21.2v10.2h78.4v-10.2c-22.5,0-23.7-2.3-23.7-21.2V47.7H390.3"/>
		<path id="Space-Lover" sketch:type="MSShapeGroup" fill="#FFFFFF" d="M581.4,45.4c-31.6,0-51.8,18.8-51.8,45.2
			c0,21.6,11.4,36.8,49.4,45c21.8,4.2,28.4,9,28.4,17.6c0,10.8-8.8,16.6-24.2,16.6c-15,0-31.6-6.8-41.4-17.2L525.2,178
			c14.6,12.6,34.6,19.6,57,19.6c34.6,0,55.6-19,55.6-47.2c0-22.6-12-36.4-50-44.4c-22-4.2-27.6-8.4-27.6-16.8c0-10.8,8-16,21-16
			c15.6,0,26.8,5.6,35.8,12.8l15.8-25.2C620.6,51.4,602.4,45.4,581.4,45.4L581.4,45.4z M713.4,91.6c-14.6,0-24.4,6-29.8,13.4
			l-1.4-11.4h-26.4V241h29.4v-55.2c5,5.6,13.8,11.2,28.2,11.2c27,0,45.2-22.2,45.2-52.6S740.4,91.6,713.4,91.6L713.4,91.6z
			 M706.2,117.2c13.4,0,22.8,10.4,22.8,27.2c0,16.6-9.4,27-22.8,27c-10.2,0-16.6-5.4-21-12.8V130C689.6,122.8,696,117.2,706.2,117.2
			L706.2,117.2z M816,91.6c-27,0-45.2,22.4-45.2,52.8S789,197,816,197c14.6,0,24.4-6,29.6-13.2l1.6,11.2h26.4V93.6h-26.4l-1.6,11.4
			C840.4,97.6,830.6,91.6,816,91.6L816,91.6z M823.2,117.2c10.2,0,16.4,5.6,20.8,12.8v28.8c-4.4,7.2-10.6,12.6-20.8,12.6
			c-13.4,0-22.8-10.4-22.8-27C800.4,127.6,809.8,117.2,823.2,117.2L823.2,117.2z M944.8,91.6c-30.8,0-52.4,22.4-52.4,52.8
			S914,197,945,197c18.8,0,32.6-8.6,41.8-23l-20.6-15.8c-4.2,7.8-11.2,13.4-21,13.4c-15,0-23.2-12.2-23.2-27.2
			c0-15.2,8-27.4,23-27.4c10,0,16.6,5.6,20.6,13.4l21-15.6C977.4,100.2,963.6,91.6,944.8,91.6L944.8,91.6z M1045.2,91.6
			c-30.2,0-51,22.6-51,53s20.4,52.4,52.2,52.4c19,0,32.4-6,43-18.2l-20.2-16.4c-4.4,6-12.2,10.4-22.2,10.4
			c-14.6,0-22.6-7.4-23.2-20.4h68.6V143C1092.4,115.2,1077,91.6,1045.2,91.6L1045.2,91.6z M1044.2,113.8c12,0,18.8,8.6,19.2,20
			h-39.6C1024.4,122.2,1032.2,113.8,1044.2,113.8L1044.2,113.8z M1189.2,48h-30.6v147h93.2v-26.8h-62.6V48L1189.2,48z M1311.8,91.6
			c-30.8,0-53.2,22.6-53.2,53s22.4,52.4,53.2,52.4c30.8,0,53.6-22,53.6-52.4S1342.6,91.6,1311.8,91.6L1311.8,91.6z M1311.8,117.2
			c13.8,0,23.8,11.8,23.8,27.4c0,15.4-10,26.8-23.8,26.8c-13.6,0-23.6-11.4-23.6-26.8C1288.2,129,1298.2,117.2,1311.8,117.2
			L1311.8,117.2z M1477.8,93.6H1445l-23,49.4l-23.2-49.4h-33l55.8,103.4h0.8L1477.8,93.6L1477.8,93.6z M1529.4,91.6
			c-30.2,0-51,22.6-51,53s20.4,52.4,52.2,52.4c19,0,32.4-6,43-18.2l-20.2-16.4c-4.4,6-12.2,10.4-22.2,10.4
			c-14.6,0-22.6-7.4-23.2-20.4h68.6V143C1576.6,115.2,1561.2,91.6,1529.4,91.6L1529.4,91.6z M1528.4,113.8c12,0,18.8,8.6,19.2,20
			H1508C1508.6,122.2,1516.4,113.8,1528.4,113.8L1528.4,113.8z M1653.4,91.6c-14.2,0-24.2,7.2-29.2,15.4l-1.8-13.4h-26.2V195h29.4
			v-60.8c5.8-7.4,13.4-13.4,25.4-13.4h2.4V91.6L1653.4,91.6z"/>
	</g>
</g>
</svg>
