<?xml version="1.0" encoding="UTF-8" standalone="no"?>
<svg width="256px" height="256px" viewBox="0 0 256 256" version="1.1" xmlns="http://www.w3.org/2000/svg" xmlns:xlink="http://www.w3.org/1999/xlink" xmlns:sketch="http://www.bohemiancoding.com/sketch/ns">
    <!-- Generator: Sketch 3.0.4 (8053) - http://www.bohemiancoding.com/sketch -->
    <title>icon</title>
    <desc>Created with Sketch.</desc>
    <defs></defs>
    <g id="Page-1" stroke="none" stroke-width="1" fill="none" fill-rule="evenodd" sketch:type="MSPage">
        <g id="icon" sketch:type="MSLayerGroup" transform="translate(-107.000000, 0.000000)">
            <rect id="Rectangle-1" fill="#CB3920" sketch:type="MSShapeGroup" x="107" y="0" width="256" height="256"></rect>
            <path d="M202.37159,151.39782 L201.86096,151.39782 L207.477896,117.947873 C211.818255,117.437243 213.860777,116.671297 215.903299,114.628775 L193.180241,97.0083743 L183.219298,107.986931 L180.41083,107.986931 L186.538397,76.0688753 C191.137719,75.5582447 193.180241,74.7922989 195.222763,72.7497768 L171.985426,54.6223931 L161.772816,65.6009494 L134.961066,65.6009494 C142.875839,51.8139252 149.514036,38.0232535 155.130972,24.7468598 C162.028131,25.5128056 164.581284,23.7255987 166.113175,20.6618156 L130.620706,7.63708974 C124.49314,26.0234361 116.574719,45.6863588 106.362109,65.6009494 L9.3313664,65.6009494 L10.863258,70.7072547 L103.808956,70.7072547 C79.5503588,117.181928 44.313205,164.418899 -0.370613636,197.61353 L2.18253901,200.677314 C25.4198754,188.166866 46.1004118,173.099618 64.2314429,156.24881 L204.669428,156.24881 C201.095014,192.25191 195.222763,214.719653 188.580919,219.829606 C186.027766,221.616813 183.985244,221.616813 179.9002,221.616813 C174.283264,221.616813 158.964348,221.361497 151.045927,220.850867 L150.790612,224.680596 C172.751372,228.25501 175.04921,233.871945 175.04921,247.914285 C207.22258,247.914285 222.030866,238.978251 229.693971,162.376377 C234.544961,161.610431 237.864059,160.333855 239.651266,158.036017 L213.350147,138.117779 L202.37159,151.39782 L202.37159,151.39782 Z M178.368308,151.39782 L69.3377482,151.39782 C82.1035114,139.13904 93.5963457,126.117962 103.808956,112.841568 L184.75119,112.841568 L178.368308,151.39782 L178.368308,151.39782 Z M155.64525,107.986931 L107.638685,107.986931 C116.574719,95.731798 124.748455,83.22135 132.152598,70.7072547 L163.049392,70.7072547 L155.64525,107.986931 L155.64525,107.986931 Z M142.875839,169.780519 C152.067189,176.674031 160.751555,189.443442 163.304708,200.166683 C166.368491,202.719836 169.432274,203.741097 172.240742,203.741097 C178.878939,203.741097 184.75119,197.61353 184.75119,190.464703 C184.75119,181.014391 174.793894,169.525204 144.407731,167.737997 L142.875839,169.780519 L142.875839,169.780519 Z M40.483476,10.1938897 C49.9301408,21.4277614 56.8273003,40.3210909 56.8273003,55.3883389 C60.6570292,59.9840136 64.9973887,61.7712205 69.0824329,61.7712205 C77.5078367,61.7712205 84.9119793,54.3670778 84.9119793,44.6650978 C84.9119793,33.1722635 74.4440535,18.3639782 42.5259981,8.66199816 L40.483476,10.1938897 L40.483476,10.1938897 Z M106.362109,175.14214 C114.021567,184.847767 119.893818,200.932629 119.638503,213.443077 C122.961248,217.276453 126.790977,219.06366 130.365391,219.06366 C137.514218,219.06366 144.152415,212.421816 144.152415,203.996412 C144.152415,194.294432 135.471696,181.783984 108.915262,173.610248 L106.362109,175.14214 L106.362109,175.14214 Z M74.6993688,179.227184 C76.2312603,184.592452 76.9972061,190.975334 76.9972061,197.868846 C76.9972061,206.80488 75.7206298,216.255192 72.9121619,223.91465 C75.7206298,229.786901 80.3163046,232.340054 85.1672946,232.340054 C93.3410304,232.340054 101.511119,224.680596 101.511119,213.187762 C101.511119,203.485782 95.3835525,190.975334 77.7631519,178.205923 L74.6993688,179.227184 L74.6993688,179.227184 Z M47.6323034,181.014391 C47.6323034,195.826324 36.653747,207.826141 26.1858212,211.911185 C20.0582549,214.719653 14.692987,219.829606 14.692987,226.212487 C14.692987,232.850684 19.8029396,238.46762 29.5049196,238.46762 C44.0578897,238.46762 56.0613545,225.446542 56.0613545,204.762358 C56.0613545,197.61353 54.5294629,189.698757 51.4656797,180.762723 L47.6323034,181.014391 L47.6323034,181.014391 Z M390.269035,47.7288809 C405.336283,47.7288809 407.889436,48.750142 413.506372,80.4128821 L426.01682,80.4128821 L419.889253,34.4488398 L279.961899,34.4488398 L273.834333,80.4128821 L286.603743,80.4128821 C291.965364,49.0054573 294.263201,47.7288809 309.582117,47.7288809 L334.351345,47.7288809 L334.351345,193.528486 C334.351345,212.421816 333.074769,214.719653 310.858693,214.719653 L310.858693,224.935911 L389.247774,224.935911 L389.247774,214.719653 C366.780031,214.719653 365.503455,212.421816 365.503455,193.528486 L365.503455,47.7288809 L390.269035,47.7288809" id="Fill-1" fill="#FFFFFF" sketch:type="MSShapeGroup"></path>
        </g>
    </g>
</svg>