<svg width="256" height="256" viewBox="0 0 256 256" xmlns="http://www.w3.org/2000/svg" xmlns:xlink="http://www.w3.org/1999/xlink"><title>icon@2x</title><defs><path id="a" d="M0 0h154v154H0z"/></defs><g fill="none" fill-rule="evenodd"><path fill="#FF4525" d="M0 0h256v256H0z"/><g transform="translate(51 53)"><mask id="b" fill="#fff"><use xlink:href="#a"/></mask><path d="M57.372 91.075h-.307l3.379-20.122c2.61-.307 3.84-.768 5.068-1.997l-13.67-10.6-5.991 6.605h-1.69l3.686-19.2c2.767-.308 3.996-.769 5.225-1.997l-13.98-10.905-6.143 6.604H16.82c4.762-8.294 8.755-16.59 12.134-24.576 4.149.46 5.685-.615 6.606-2.458L14.21 4.594c-3.687 11.06-8.45 22.89-14.594 34.87h-58.37l.922 3.07H-1.92c-14.593 27.958-35.79 56.374-62.67 76.343l1.536 1.843a180.305 180.305 0 0 0 37.326-26.727h84.482c-2.15 21.659-5.682 35.174-9.678 38.248-1.536 1.075-2.765 1.075-5.222 1.075-3.379 0-12.594-.153-17.358-.46l-.153 2.303c13.21 2.15 14.593 5.53 14.593 13.977 19.354 0 28.262-5.376 32.872-51.456 2.918-.461 4.915-1.23 5.99-2.611L63.976 83.086l-6.604 7.99zm-14.44 0h-65.588c7.68-7.374 14.593-15.207 20.736-23.194h48.692l-3.84 23.194zM29.263 64.961H.384a280.798 280.798 0 0 0 14.747-22.426h18.586L29.263 64.96zm-7.681 37.173c5.529 4.146 10.753 11.828 12.289 18.279 1.843 1.536 3.686 2.15 5.375 2.15 3.994 0 7.526-3.686 7.526-7.987 0-5.685-5.99-12.596-24.269-13.671l-.921 1.229zM-40.014 6.132c5.683 6.758 9.832 18.124 9.832 27.188 2.304 2.764 4.915 3.84 7.372 3.84 5.069 0 9.523-4.455 9.523-10.291 0-6.914-6.297-15.822-25.498-21.658l-1.229.921zm39.63 99.227c4.608 5.838 8.14 15.515 7.987 23.04 1.999 2.306 4.303 3.381 6.453 3.381 4.3 0 8.293-3.995 8.293-9.063 0-5.837-5.221-13.363-21.197-18.28l-1.536.922zm-19.047 2.457c.922 3.228 1.382 7.068 1.382 11.214 0 5.376-.767 11.061-2.457 15.669 1.69 3.532 4.454 5.068 7.372 5.068 4.917 0 9.832-4.608 9.832-11.521 0-5.837-3.686-13.362-14.286-21.044l-1.843.614zm-16.282 1.075c0 8.91-6.605 16.13-12.902 18.587-3.686 1.69-6.913 4.763-6.913 8.603 0 3.993 3.074 7.372 8.91 7.372 8.754 0 15.975-7.833 15.975-20.276 0-4.3-.921-9.061-2.764-14.437l-2.306.151zm206.117-80.18c9.064 0 10.6.615 13.979 19.662h7.526l-3.687-27.65h-84.175l-3.686 27.65h7.682c3.225-18.893 4.608-19.661 13.823-19.661h14.9v87.707c0 11.366-.768 12.748-14.132 12.748v6.146h47.156v-6.146c-13.516 0-14.284-1.382-14.284-12.748V28.712h14.898" fill="#FFF" mask="url(#b)"/></g></g></svg>