<?xml version="1.0" encoding="utf-8"?>
<!-- Generator: Adobe Illustrator 16.2.1, SVG Export Plug-In . SVG Version: 6.00 Build 0)  -->
<!DOCTYPE svg PUBLIC "-//W3C//DTD SVG 1.1//EN" "http://www.w3.org/Graphics/SVG/1.1/DTD/svg11.dtd">
<svg version="1.1" id="Layer_1" xmlns="http://www.w3.org/2000/svg" xmlns:xlink="http://www.w3.org/1999/xlink" x="0px" y="0px"
	 width="1914px" height="292px" viewBox="0 0 1914 292" enable-background="new 0 0 1914 292" xml:space="preserve">
<g id="Logo" enable-background="new    ">
	<g id="Shape_1">
		<g>
			<path fill="#3F729B" d="M260.087-0.006H33.911c-18.73,0-33.916,15.08-33.916,33.687v224.616
				c0,18.617,15.186,33.706,33.916,33.706h226.176c18.732,0,33.916-15.089,33.916-33.706V33.681
				C294.003,15.074,278.82-0.006,260.087-0.006z M146.999,89.84c31.227,0,56.544,25.137,56.544,56.152
				c0,31.012-25.317,56.162-56.544,56.162c-31.23,0-56.542-25.15-56.542-56.162C90.457,114.977,115.769,89.84,146.999,89.84z
				 M260.087,247.076c0,6.193-5.065,11.221-11.321,11.221H45.231c-6.255,0-11.32-5.025-11.32-11.221V123.523h25.597
				c-1.864,7.189-2.97,14.702-2.97,22.469c0,49.63,40.501,89.853,90.46,89.853c49.96,0,90.458-40.223,90.458-89.853
				c0-7.767-1.101-15.279-2.965-22.469h25.596V247.076z M260.087,78.61c0,6.198-5.065,11.229-11.321,11.229H214.85
				c-6.248,0-11.308-5.031-11.308-11.229v-33.7c0-6.199,5.061-11.229,11.308-11.229h33.916c6.255,0,11.321,5.03,11.321,11.229V78.61
				z"/>
		</g>
	</g>
</g>
<g id="Text" enable-background="new    ">
	<g id="Instagram_Badges">
		<g>
			<path fill="#20262B" d="M478.702,22.003c0-1.951-0.638-3.32-1.907-4.104c-1.273-0.778-2.594-1.269-3.959-1.465l-20.53-1.466
				c-1.76-0.586-3.325-0.879-4.691-0.879c-3.521,0-6.942,1.272-10.266,3.81c-3.327,2.542-6.452,5.862-9.386,9.965
				c-2.933,4.104-5.673,8.747-8.211,13.922c-2.544,5.18-4.693,10.455-6.453,15.826c-1.759,5.377-3.13,10.552-4.104,15.534
				c-0.98,4.982-1.468,9.333-1.468,13.042v10.258c0,4.887,0.83,10.162,2.493,15.827c1.659,5.669,4.202,10.944,7.625,15.826
				c3.419,4.887,7.723,8.939,12.905,12.163c5.178,3.224,11.291,4.836,18.33,4.836l4.398-0.293c0,5.275-0.979,10.895-2.934,16.853
				c-1.956,5.962-4.939,11.48-8.944,16.56c-4.01,5.083-9.046,9.282-15.104,12.603c-6.062,3.324-13.198,4.982-21.41,4.982
				c-9.385,0-17.207-2.052-23.463-6.154c-6.26-4.104-9.385-10.845-9.385-20.224c0-3.123,0.88-5.761,2.64-7.913
				c1.76-2.147,3.666-4.296,5.719-6.447c2.054-2.147,3.96-4.64,5.721-7.475c1.759-2.83,2.64-6.397,2.64-10.697
				c0-1.951-0.491-3.856-1.467-5.716c-0.98-1.854-3.228-2.784-6.746-2.784c-3.716,0-7.038,0.93-9.972,2.784
				c-2.934,1.859-5.427,4.301-7.479,7.327c-2.053,3.032-3.615,6.549-4.692,10.553c-1.071,4.006-1.612,8.159-1.612,12.455
				c0,5.083,0.688,10.404,2.053,15.973c1.371,5.569,4.01,10.699,7.919,15.389c3.909,4.688,9.335,8.545,16.277,11.576
				c6.938,3.027,15.983,4.543,27.129,4.543h3.812c12.905,0,23.509-2.102,31.821-6.303c8.309-4.203,14.857-9.862,19.65-16.998
				c4.789-7.131,8.16-15.287,10.117-24.473c1.952-9.183,2.935-18.758,2.935-28.723V35.484c-0.784-2.536-1.174-5.175-1.174-7.913
				c0-1.95,0.146-3.319,0.439-4.103C478.262,22.689,478.505,22.2,478.702,22.003z M454.652,52.777
				c-0.396,1.369-0.783,2.834-1.174,4.396v68.582c-0.979,0.394-2.396,0.688-4.253,0.88c-1.859,0.196-2.982,0.293-3.372,0.293
				c-4.5,0-8.065-1.759-10.705-5.275c-2.641-3.518-4.692-7.621-6.158-12.31c-1.467-4.689-2.397-9.425-2.786-14.215
				c-0.396-4.786-0.587-8.449-0.587-10.991c0-3.32,0.293-7.62,0.88-12.896c0.587-5.276,1.613-10.354,3.079-15.24
				c1.467-4.882,3.564-9.086,6.306-12.603c2.736-3.518,6.256-5.275,10.56-5.275c3.321,0,5.617,1.025,6.893,3.077
				c1.27,2.052,1.906,4.351,1.906,6.888C455.239,49.846,455.042,51.412,454.652,52.777z M585.747,150.374v-0.586
				c0-1.562-0.293-2.931-0.88-4.104c-0.587-1.172-1.76-1.758-3.521-1.758c-2.739,0-4.207,1.858-4.398,5.568
				c-0.197,2.931-0.783,6.059-1.761,9.379c-0.979,3.324-2.198,6.447-3.666,9.379c-1.466,2.932-3.078,5.376-4.839,7.327
				c-1.76,1.955-3.717,2.931-5.865,2.931c-2.934,0-4.891-2.052-5.865-6.154c-0.98-4.104-1.467-8.691-1.467-13.774
				c0-8.985,0.191-15.727,0.587-20.224c0.39-4.492,0.587-7.716,0.587-9.672c0-2.733-0.103-5.568-0.294-8.499
				c-0.197-2.931-0.783-5.665-1.761-8.206c-0.979-2.537-2.396-4.64-4.252-6.302c-1.859-1.658-4.546-2.491-8.064-2.491
				c-2.74,0-5.426,1.662-8.065,4.982c-2.64,3.325-5.133,7.327-7.479,12.017c-2.348,4.689-4.5,9.626-6.453,14.801
				c-1.956,5.18-3.62,9.525-4.985,13.042c-0.395,1.369-0.688,2.152-0.88,2.345V90.878c0-1.172-0.688-2.198-2.053-3.077
				c-1.371-0.88-3.034-1.612-4.986-2.198c-1.957-0.586-3.812-1.026-5.572-1.319c-1.76-0.293-3.13-0.439-4.104-0.439
				c-2.741,0-4.106,1.273-4.106,3.812L487.79,174.7c0.39,5.083,0.88,9.136,1.466,12.163c0.587,3.031,1.467,5.275,2.641,6.74
				s2.883,2.396,5.133,2.785c2.245,0.394,5.133,0.586,8.651,0.586c1.174,0,3.079-0.192,5.72-0.586
				c2.64-0.391,4.15-1.174,4.546-2.346c0.976-4.882,1.905-10.011,2.786-15.387c0.88-5.372,2.003-10.744,3.373-16.12
				c1.364-5.371,2.979-10.552,4.839-15.533c1.854-4.982,4.253-9.525,7.186-13.629l-0.587,21.396c0,12.508,1.22,21.937,3.666,28.283
				c2.443,6.353,8.065,9.524,16.864,9.524c5.669,0,10.457-1.466,14.371-4.396c3.909-2.933,7.084-6.545,9.53-10.846
				c2.442-4.295,4.3-8.889,5.572-13.773C584.816,158.682,585.55,154.285,585.747,150.374z M628.564,110.222
				c1.364,0,2.589,0.344,3.666,1.025c1.071,0.688,2.099,1.466,3.078,2.345c0.978,0.88,1.856,1.662,2.641,2.345
				c0.779,0.688,1.562,1.026,2.347,1.026c2.735,0,4.986-0.829,6.745-2.491c1.76-1.658,3.176-3.563,4.253-5.716
				c1.072-2.147,1.856-4.346,2.347-6.594c0.485-2.244,0.733-3.957,0.733-5.129c0-3.907-1.664-6.545-4.986-7.914
				c-3.327-1.364-6.648-2.052-9.972-2.052c-3.521,0-8.409,0.587-14.664,1.759c-6.26,1.173-12.368,3.128-18.33,5.862
				c-5.967,2.738-11.146,6.447-15.544,11.137c-4.399,4.689-6.6,10.455-6.6,17.292c0,4.887,1.123,9.379,3.373,13.482
				c2.244,4.103,5.081,7.867,8.505,11.283c3.419,3.421,7.085,6.595,10.998,9.525c3.908,2.931,7.574,5.766,10.999,8.5
				c3.418,2.737,6.255,5.376,8.505,7.913c2.245,2.541,3.373,5.18,3.373,7.912c0,2.738-1.32,4.645-3.96,5.716
				c-2.641,1.075-4.743,1.612-6.307,1.612c-3.52,0-6.647-0.778-9.385-2.346c-2.74-1.562-5.233-3.224-7.479-4.982
				c-2.25-1.758-4.398-3.416-6.451-4.981c-2.055-1.562-4.157-2.345-6.307-2.345c-1.566,0-3.181,0.438-4.84,1.318
				c-1.663,0.879-2.492,2.396-2.492,4.543c0,3.518,1.319,6.447,3.959,8.793c2.641,2.345,5.865,4.152,9.68,5.422
				c3.812,1.272,7.722,2.197,11.73,2.783c4.005,0.586,7.377,0.881,10.118,0.881c1.76,0,4.642-0.146,8.651-0.44
				c4.006-0.293,8.016-1.024,12.024-2.197c4.005-1.173,7.574-3.026,10.704-5.569c3.126-2.537,4.693-6.153,4.693-10.844
				c0-3.906-2.302-7.959-6.894-12.162c-4.597-4.199-9.679-8.449-15.251-12.75c-5.572-4.295-10.659-8.596-15.251-12.896
				c-4.596-4.296-6.892-8.399-6.892-12.31c0-4.493,1.365-8.743,4.104-12.75C616.93,112.228,621.718,110.222,628.564,110.222z
				 M925.215,200.052c-3.033-1.075-5.426-1.61-7.186-1.61c-0.197,0-0.49,0.045-0.88,0.146c-0.395,0.097-0.783,0.146-1.173,0.146
				h-1.175c-0.195-2.733-0.293-6.199-0.293-10.403v-10.111c0-3.319,0.046-7.079,0.146-11.284c0.097-4.199,0.243-8.303,0.439-12.31
				c0.192-4.003,0.485-7.717,0.88-11.138c0.391-3.416,0.881-5.907,1.467-7.474c0.192-0.389,0.732-1.318,1.612-2.784
				c0.88-1.465,1.32-2.391,1.32-2.784c0-1.562-0.587-2.587-1.76-3.077c-1.174-0.485-2.476-0.925-3.904-1.319
				c-1.43-0.389-2.704-0.879-3.812-1.465c-1.113-0.587-1.669-1.658-1.669-3.225c0-3.906,0.243-7.13,0.733-9.672
				c0.485-2.536,0.733-5.371,0.733-8.499c0-4.492-0.688-8.252-2.062-11.284c-1.375-3.026-3.234-5.468-5.591-7.327
				c-2.355-1.854-5.201-3.37-8.537-4.542c-3.336-1.173-6.97-2.148-10.893-2.932c-0.788-0.192-1.916-0.632-3.388-1.318
				c-1.476-0.683-2.945-1.365-4.418-2.052c-1.471-0.683-2.846-1.318-4.119-1.905c-1.277-0.586-2.31-0.879-3.094-0.879
				c-7.065,0-12.904,2.592-17.514,7.767c-4.615,5.18-8.295,11.824-11.04,19.93c-2.749,8.11-4.66,17.05-5.742,26.817
				c-1.081,9.772-1.617,19.247-1.617,28.431c0,3.365,0.081,6.58,0.233,9.66c-0.029,0.104-0.055,0.199-0.084,0.305
				c-0.88,3.127-1.957,6.205-3.228,9.23c-1.273,3.032-2.837,5.717-4.691,8.061c-1.86,2.346-3.96,3.518-6.307,3.518
				c-2.153,0-3.913-0.925-5.278-2.784c-1.37-1.854-2.396-4.198-3.079-7.034c-0.688-2.83-1.174-5.861-1.467-9.086
				c-0.293-3.224-0.439-6.199-0.439-8.938c0-5.469,0.192-10.157,0.586-14.068c0.39-3.906,1.562-8.398,3.521-13.481V128.1
				c0-1.364-0.439-2.491-1.319-3.37c-0.88-0.88-1.906-1.562-3.08-2.052c-1.173-0.485-2.199-0.925-3.079-1.319
				c-0.88-0.389-1.32-0.682-1.32-0.879c-0.586-3.906-0.782-7.863-0.586-11.87c0.192-4.002,0.047-7.862-0.439-11.576
				c-0.49-3.71-1.567-7.181-3.227-10.405c-1.664-3.224-4.546-6.008-8.651-8.353c-3.717-0.586-6.6-1.365-8.651-2.345
				c-2.054-0.976-3.96-1.905-5.72-2.784c-1.76-0.88-3.666-1.658-5.719-2.345c-2.054-0.683-5.036-1.026-8.945-1.026
				c-6.649,0-12.318,2.396-17.011,7.181c-4.692,4.79-8.505,11.238-11.438,19.344c-2.934,8.11-5.036,17.438-6.306,27.99
				c-0.698,5.782-1.197,11.746-1.511,17.88c-0.033,0.049-0.069,0.093-0.102,0.145c-0.784,1.273-1.467,3.37-2.054,6.302
				c-0.98,4.886-2.153,9.671-3.521,14.36c-1.37,4.688-2.933,8.894-4.691,12.604c-1.761,3.714-3.716,6.645-5.865,8.792
				c-2.154,2.151-4.5,3.224-7.039,3.224c-1.76,0-3.276-0.879-4.546-2.638c-1.274-1.758-2.301-4.053-3.079-6.887
				c-0.784-2.831-1.371-6.009-1.76-9.525c-0.396-3.518-0.587-7.131-0.587-10.845c0-9.768,0.096-19.096,0.293-27.989
				c0.191-8.889,0.439-16.752,0.732-23.594c0.293-6.837,0.587-12.355,0.881-16.56c0.293-4.199,0.535-6.493,0.732-6.887
				c0.39-0.779,2.199-1.415,5.426-1.905c3.227-0.485,6.791-0.925,10.705-1.319c3.908-0.389,7.625-0.682,11.146-0.879
				c3.52-0.192,5.669-0.293,6.452-0.293c2.933,0,4.737,0.293,5.426,0.879c0.683,0.586,1.219,0.88,1.613,0.88
				c0.587,0,1.071-0.44,1.466-1.319c0.39-0.879,0.587-1.511,0.587-1.905c0-2.537-1.026-4.441-3.079-5.715
				c-2.053-1.269-4.692-2.198-7.919-2.784c-3.228-0.586-6.649-0.88-10.266-0.88c-3.619,0-7.038-0.045-10.266-0.146
				c-3.226-0.096-5.865-0.389-7.918-0.879c-2.054-0.485-3.08-1.318-3.08-2.491l3.228-38.101c0-1.173-1.026-2.244-3.08-3.225
				c-2.054-0.976-4.449-1.804-7.187-2.491c-2.74-0.683-5.38-1.218-7.918-1.611c-2.544-0.39-4.304-0.587-5.279-0.587
				c-0.782,0-1.421,1.173-1.905,3.518c-0.49,2.345-0.834,5.325-1.026,8.938c-0.197,3.618-0.344,7.474-0.439,11.577
				c-0.102,4.104-0.197,7.964-0.294,11.577c-0.101,3.617-0.293,6.594-0.587,8.938c-0.293,2.345-0.834,3.518-1.612,3.518
				c-9.973,0-17.496,0.197-22.583,0.586c-5.082,0.394-7.625,1.859-7.625,4.396c0,2.931,1.566,5.032,4.691,6.301
				c3.13,1.273,6.649,2.198,10.56,2.785c3.909,0.586,7.429,1.172,10.558,1.758c3.126,0.587,4.693,1.663,4.693,3.225
				c-0.396,8.792-0.784,18.368-1.174,28.722c-0.395,10.359-0.688,20.517-0.881,30.481v2.637c0,8.404,0.685,16.267,2.055,23.594
				c1.365,7.327,3.372,13.68,6.012,19.051c2.64,5.376,5.912,9.571,9.825,12.604c3.909,3.026,8.505,4.543,13.784,4.543
				c5.472,0,10.266-2.248,14.371-6.741c4.105-4.492,7.574-9.718,10.411-15.681c1.192-2.508,2.259-5.039,3.244-7.582
				c0.875,4.318,2.08,8.369,3.647,12.125c1.952,4.689,4.546,8.545,7.771,11.578c3.228,3.025,7.187,4.541,11.879,4.541
				c1.562,0,2.786,0.098,3.666,0.295c0.88,0.19,1.658,0.438,2.347,0.731c0.683,0.293,1.319,0.535,1.906,0.731
				c0.587,0.192,1.467,0.293,2.64,0.293c4.105,0,7.671-1.223,10.705-3.662c3.028-2.445,5.719-5.424,8.064-8.939
				c2.347-3.517,4.298-7.326,5.865-11.431c1.562-4.103,2.933-7.716,4.106-10.845c0.976,8.207,3.666,14.56,8.064,19.052
				c4.398,4.497,9.531,6.739,15.397,6.739c3.909,0,7.479-1.172,10.704-3.517c3.227-2.345,6.059-5.225,8.506-8.646
				c1.021-1.43,1.949-2.894,2.816-4.375c0.786,3.383,1.809,6.455,3.073,9.211c2.062,4.496,4.908,8.009,8.547,10.551
				c3.634,2.537,8.202,4.002,13.706,4.396c2.158,0,3.826,0.293,5.009,0.879c1.179,0.586,2.554,0.879,4.13,0.879
				c2.941,0,5.596-1.025,7.954-3.077c2.355-2.052,4.47-4.446,6.339-7.181c1.864-2.733,3.486-5.614,4.861-8.646
				c1.375-3.027,2.553-5.423,3.538-7.182c0,4.301-0.102,8.5-0.294,12.604c-0.197,4.104,0.084,8.053-0.306,12.154l-0.545,1.708
				c-2.726,0.604-5.314,1.185-8.636,2.938c-10.33,5.428-18.414,13.887-24.256,18.848c-10.787,10.31-24.419,32.408-8.125,51.02
				c14.092,16.094,43.53,13.26,49.472,4.485c4.221-6.245,8.639-11.9,10.467-20.013c1.633-7.246,4.693-22.564,4.693-30.574
				c0-8.014,0.011-14.188-0.183-19.463l0.293-3.519c0-1.172,0.486-1.759,1.467-1.759l5.865,0.587c1.563,0,3.227-0.396,4.986-1.173
				c1.76-0.783,2.64-2.152,2.64-4.104C929.761,202.734,928.244,201.124,925.215,200.052z M786.934,120.479
				c0,0.394-0.688,1.025-2.053,1.905c-1.37,0.879-2.25,2.981-2.64,6.301c-0.587,6.256-1.225,13.144-1.906,20.663
				c-0.688,7.523-1.811,14.559-3.373,21.103c-1.567,6.549-3.863,12.017-6.893,16.413c-3.033,4.396-7.382,6.595-13.052,6.595
				c-2.347,0-4.253-1.365-5.719-4.104c-1.467-2.732-2.594-6.054-3.373-9.965c-0.783-3.906-1.319-8.06-1.612-12.455
				c-0.293-4.396-0.439-8.156-0.439-11.285c0-4.103,0.293-9.716,0.88-16.852c0.586-7.131,1.855-14.068,3.812-20.81
				c1.951-6.741,4.642-12.603,8.064-17.585c3.418-4.982,7.868-7.474,13.344-7.474c3.323,0,5.963,0.879,7.92,2.638
				c1.951,1.759,3.419,3.911,4.398,6.448c0.977,2.541,1.659,5.275,2.053,8.206c0.391,2.931,0.587,5.473,0.587,7.62L786.934,120.479
				L786.934,120.479z M891.341,239.912c-2.882,16.936-9.119,38.518-18.414,38.659c-22.915,0.351-18.538-25.321-14.957-31.878
				c3.486-6.383,7.003-12.534,12.573-18.291c2.714-2.805,13.247-11.686,20.798-12.377
				C891.341,225.99,892.341,234.034,891.341,239.912z M892.046,120.187c-0.312,2.152-1.091,4.007-2.337,5.568
				c-0.417,0.587-0.834,1.905-1.246,3.957c-0.417,2.052-0.729,5.912-0.936,11.577c-0.196,4.103-0.834,8.938-1.906,14.507
				c-1.076,5.569-2.64,10.945-4.692,16.12c-2.053,5.18-4.646,9.525-7.771,13.042c-3.13,3.519-6.745,5.274-10.853,5.274
				c-2.346,0-4.252-1.172-5.719-3.517c-1.466-2.345-2.543-5.274-3.226-8.793c-0.688-3.517-1.174-7.474-1.467-11.869
				c-0.294-4.396-0.439-8.646-0.439-12.75c0-9.768,0.737-18.51,2.213-26.229c1.477-7.717,3.446-14.261,5.907-19.637
				c2.461-5.372,5.314-9.525,8.568-12.456c3.25-2.932,6.745-4.396,10.484-4.396c2.759,0,5.073,0.833,6.943,2.491
				c1.869,1.662,3.299,3.714,4.284,6.154c0.979,2.446,1.673,5.033,2.065,7.768c0.396,2.738,0.592,5.179,0.592,7.327
				C892.514,116.083,892.357,118.039,892.046,120.187z M1265.271,145.392c-2.545,0-4.305,2.344-5.279,7.034
				c-0.783,4.497-1.76,8.844-2.934,13.042c-1.174,4.204-2.544,7.868-4.105,10.991c-1.567,3.128-3.423,5.619-5.572,7.475
				c-2.152,1.858-4.596,2.783-7.332,2.783c-1.957,0-3.52-0.879-4.691-2.638c-1.173-1.759-2.104-4.054-2.786-6.888
				c-0.688-2.83-1.173-6.008-1.468-9.525c-0.293-3.518-0.439-7.034-0.439-10.551c0-8.206,0.244-14.947,0.734-20.223
				c0.484-5.275,1.416-10.647,2.785-16.12c0.391-1.95,1.174-3.855,2.347-5.715c1.173-1.854,1.76-2.977,1.76-3.371
				c0-2.147-0.834-4.199-2.493-6.154c-1.663-1.951-3.615-3.709-5.855-5.275c-2.241-1.562-4.527-2.784-6.86-3.664
				c-2.332-0.879-4.179-1.318-5.535-1.318c-1.751,0-3.744,0.05-5.979,0.146c-2.236,0.101-3.548,0.54-3.933,1.318
				c-2.338,4.497-4.958,10.552-7.873,18.172c-2.914,7.62-5.637,15.048-8.166,22.274c-2.529,7.23-4.716,13.481-6.562,18.756
				c-1.848,5.276-2.965,7.914-3.351,7.914c-0.39,0-0.582-0.586-0.582-1.758V111.98c-0.196-1.173-0.834-2.198-1.905-3.078
				c-1.077-0.879-2.302-1.611-3.666-2.198c-1.37-0.586-2.786-1.025-4.254-1.318c-1.467-0.293-2.689-0.438-3.666-0.438
				c-1.369,0-3.13,0.146-5.278,0.438c-2.153,0.293-3.62,0.732-4.399,1.318c-2.153,1.956-4.206,5.084-6.158,9.379
				c-1.957,4.301-3.768,8.99-5.426,14.068c-1.664,5.083-3.13,10.212-4.399,15.387c-1.273,5.18-2.396,9.723-3.373,13.629V88.533
				c-0.587-0.39-1.663-0.829-3.227-1.318c-1.566-0.485-3.276-0.926-5.132-1.319c-1.86-0.39-3.717-0.732-5.572-1.025
				c-1.861-0.294-3.475-0.44-4.84-0.44c-0.586,0-1.518,0.146-2.786,0.44c-1.272,0.293-1.906,1.223-1.906,2.784
				c0,0.394,0.098,2.006,0.294,4.836c0.191,2.834,0.293,5.129,0.293,6.887c-0.395,12.896-0.732,24.134-1.025,33.705
				c-0.232,7.57-0.371,14.396-0.42,20.498c-0.9,0.468-1.495,1.543-1.777,3.242c-0.197,1.565-0.733,3.911-1.613,7.034
				c-0.88,3.127-1.957,6.205-3.227,9.23c-1.273,3.032-2.836,5.717-4.692,8.061c-1.86,2.346-3.959,3.518-6.306,3.518
				c-2.153,0-3.913-0.925-5.278-2.784c-1.371-1.854-2.397-4.198-3.08-7.034c-0.688-2.83-1.173-5.861-1.467-9.086
				c-0.293-3.224-0.439-6.199-0.439-8.938c0-5.469,0.192-10.157,0.587-14.068c0.391-3.906,1.562-8.398,3.52-13.481V128.1
				c0-1.364-0.439-2.491-1.319-3.37c-0.88-0.88-1.905-1.562-3.079-2.052c-1.174-0.485-2.199-0.925-3.079-1.319
				c-0.88-0.389-1.319-0.682-1.319-0.879c-0.587-3.906-0.784-7.863-0.587-11.87c0.192-4.002,0.046-7.862-0.439-11.576
				c-0.489-3.71-1.566-7.181-3.227-10.405c-1.663-3.224-4.546-6.008-8.652-8.353c-3.716-0.586-6.599-1.365-8.65-2.345
				c-2.054-0.976-3.959-1.905-5.721-2.784c-1.759-0.88-3.665-1.658-5.719-2.345c-2.053-0.683-5.036-1.026-8.944-1.026
				c-6.648,0-12.317,2.396-17.011,7.181c-4.692,4.79-8.506,11.238-11.438,19.344c-2.934,8.11-5.036,17.438-6.307,27.99
				c-1.045,8.657-1.65,17.715-1.838,27.161c-0.412,2.118-0.97,4.782-1.679,8.009c-1.077,4.887-2.493,9.723-4.253,14.508
				c-1.76,4.79-3.812,8.989-6.158,12.604c-2.347,3.617-4.986,5.422-7.919,5.422c-1.76,0-3.227-1.27-4.399-3.811
				c-1.174-2.537-2.053-5.468-2.64-8.793c-0.587-3.32-0.979-6.543-1.173-9.672c-0.197-3.123-0.294-5.275-0.294-6.447
				c0-14.653,1.76-28.723,5.279-42.205c0-0.389,0.191-1.172,0.587-2.345c0.39-1.172,0.88-2.491,1.467-3.956
				c0.586-1.466,1.072-2.931,1.466-4.396c0.39-1.466,0.587-2.588,0.587-3.37c0-2.345-1.32-4.149-3.96-5.423
				c-2.64-1.269-5.719-2.198-9.238-2.784c-3.519-0.586-7.039-0.976-10.558-1.172c-3.521-0.192-6.063-0.39-7.626-0.586h-0.88
				c-1.76-0.39-2.934-0.733-3.521-1.026c-0.586-0.293-0.88-1.122-0.88-2.491v-1.759l0.294-6.447v-1.466
				c0-4.295-1.664-6.447-4.985-6.447c-1.37,0-2.934,0.196-4.692,0.586c-1.76,0.394-3.423,0.979-4.986,1.758
				c-1.565,0.783-2.836,1.663-3.812,2.639c-0.98,0.979-1.466,2.051-1.466,3.224l0.879,17.292c0.39,2.738,0.587,5.275,0.587,7.62
				v14.361c0,1.955-0.05,3.617-0.146,4.982c-0.101,1.369-0.146,2.541-0.146,3.517v2.052c-0.197,3.518-0.49,7.524-0.88,12.017
				c-0.396,4.496-1.37,10.162-2.934,16.999c-0.39,1.565-0.587,2.737-0.587,3.517c0,1.566,0.344,2.542,1.026,2.932
				c0.683,0.395,1.416,0.586,2.2,0.586h0.293c1.952,0,3.666-1.318,5.133-3.957c1.466-2.638,2.734-6.153,3.812-10.551
				c1.072-4.396,2.054-9.475,2.934-15.24c0.88-5.761,1.709-11.77,2.493-18.025l1.173-9.378c0.191-0.779,0.587-1.466,1.173-2.052
				c0.587-0.587,2.054-0.88,4.398-0.88c1.366,0,2.832,0.197,4.399,0.587c1.562,0.394,2.347,1.369,2.347,2.931
				c-0.197,5.083-0.587,10.212-1.174,15.387c-0.586,5.18-0.88,10.309-0.88,15.387c0,4.498,0.294,10.111,0.88,16.853
				c0.587,6.741,1.856,13.189,3.813,19.344c1.951,6.155,4.788,11.432,8.505,15.826c3.712,4.396,8.697,6.596,14.958,6.596
				c5.864,0,10.704-2.248,14.517-6.742c3.813-4.491,6.843-9.621,9.093-15.387c0.154-0.396,0.298-0.787,0.445-1.18
				c0.73,2.71,1.603,5.307,2.631,7.773c1.952,4.689,4.546,8.545,7.772,11.578c3.226,3.025,7.186,4.541,11.878,4.541
				c1.562,0,2.786,0.098,3.666,0.295c0.88,0.19,1.659,0.438,2.346,0.731c0.684,0.293,1.32,0.535,1.907,0.731
				c0.586,0.192,1.466,0.293,2.639,0.293c4.106,0,7.672-1.223,10.705-3.662c3.029-2.445,5.72-5.424,8.064-8.939
				c2.348-3.517,4.3-7.326,5.866-11.431c1.562-4.103,2.934-7.716,4.105-10.845c0.977,8.207,3.666,14.56,8.064,19.052
				c4.399,4.497,9.532,6.739,15.397,6.739c3.909,0,7.479-1.172,10.705-3.517c3.226-2.345,6.059-5.225,8.505-8.646
				c1.63-2.279,3.046-4.633,4.285-7.045c0.107,2.649,0.243,4.955,0.404,6.897c0.485,5.861,1.22,10.065,2.199,12.603
				c0.39,0.977,1.366,1.805,2.933,2.492c1.563,0.682,3.272,1.217,5.134,1.61c1.855,0.39,3.712,0.733,5.571,1.026
				c1.856,0.293,3.177,0.438,3.961,0.438c2.734,0,5.229-0.196,7.479-0.586c2.245-0.396,3.373-1.662,3.373-3.812
				c0-5.86,0.485-12.502,1.466-19.93c0.978-7.423,2.101-14.508,3.373-21.248c1.271-6.74,2.64-12.457,4.105-17.146
				c1.467-4.688,2.686-7.226,3.666-7.62c0.587,0.395,0.927,1.369,1.026,2.932c0.096,1.565,0.146,3.127,0.146,4.688v21.98
				c0,6.06,0.146,11.238,0.439,15.534c0.293,4.3,1.071,7.767,2.346,10.404c1.271,2.638,3.177,4.543,5.721,5.715
				c2.538,1.173,5.961,1.759,10.265,1.759c2.735,0,4.985-0.39,6.745-1.173c1.76-0.778,2.64-1.657,2.64-2.638
				c0-2.346,0.391-5.371,1.173-9.085c0.779-3.71,1.711-7.474,2.787-11.284c1.071-3.811,2.054-7.275,2.934-10.404
				c0.88-3.123,1.416-5.175,1.611-6.154c1.175-3.319,2.935-7.914,5.279-13.774c2.348-5.862,4.885-11.431,7.626-16.706l-1.76,24.033
				v2.052c0,6.843,0.431,13.386,1.302,19.638c0.87,6.254,2.364,11.772,4.49,16.559c2.127,4.79,5.119,8.601,8.982,11.431
				c3.857,2.83,8.807,4.25,14.848,4.25c5.082,0,9.577-2.006,13.49-6.009c3.909-4.002,7.186-8.691,9.824-14.066
				c2.641-5.373,4.692-10.744,6.159-16.121c1.468-5.371,2.296-9.328,2.493-11.869c0.192-0.586,0.293-1.657,0.293-3.225
				c0-2.734-0.247-4.492-0.732-5.275C1267.859,145.785,1266.833,145.392,1265.271,145.392z M1064.959,120.479
				c0,0.394-0.688,1.025-2.053,1.905c-1.37,0.879-2.25,2.981-2.641,6.301c-0.586,6.256-1.224,13.144-1.905,20.663
				c-0.688,7.523-1.812,14.559-3.373,21.103c-1.567,6.549-3.863,12.017-6.893,16.413c-3.034,4.396-7.383,6.595-13.051,6.595
				c-2.348,0-4.253-1.365-5.72-4.104c-1.467-2.732-2.594-6.054-3.373-9.965c-0.783-3.906-1.319-8.06-1.612-12.455
				c-0.294-4.396-0.44-8.156-0.44-11.285c0-4.103,0.293-9.716,0.881-16.852c0.586-7.131,1.854-14.068,3.812-20.81
				c1.952-6.741,4.643-12.603,8.065-17.585c3.418-4.982,7.867-7.474,13.345-7.474c3.321,0,5.962,0.879,7.919,2.638
				c1.952,1.759,3.418,3.911,4.397,6.448c0.978,2.541,1.659,5.275,2.054,8.206c0.391,2.931,0.587,5.473,0.587,7.62L1064.959,120.479
				L1064.959,120.479z M1436.77,96.739c4.986-6.054,8.991-12.355,12.024-18.903c3.029-6.544,4.546-12.553,4.546-18.025
				c0-2.345-0.101-4.295-0.293-5.861c-0.197-1.562-0.637-3.077-1.318-4.543c-0.688-1.465-1.715-3.027-3.08-4.689
				c-1.37-1.657-3.327-3.956-5.865-6.888c-0.197-0.192-0.344-0.389-0.439-0.586c-0.102-0.192-0.345-0.485-0.732-0.879
				c-5.087-6.448-11.489-11.284-19.211-14.508c-7.727-3.224-15.983-4.933-24.782-5.129h-2.347c-7.235,0-15.498,0.54-24.782,1.611
				c-9.289,1.076-18.82,2.739-28.595,4.983c-9.779,2.248-19.312,5.083-28.597,8.499c-9.288,3.421-17.552,7.524-24.782,12.31
				c-7.23,4.79-13.098,10.309-17.598,16.56c-4.495,6.255-6.745,13.188-6.745,20.809c0,0.586,0.102,1.859,0.293,3.811
				c0.197,1.955,0.638,3.956,1.32,6.008c0.687,2.052,1.713,3.911,3.079,5.568c1.37,1.663,3.226,2.491,5.572,2.491
				c2.933,0,5.087-1.121,6.451-3.37c1.37-2.244,2.054-5.028,2.054-8.353c0-0.39-0.485-2.052-1.466-4.982
				c-0.978-2.932-1.468-6.641-1.468-11.138c0-3.709,2.396-7.666,7.187-11.87c4.794-4.199,10.361-8.06,16.718-11.576
				c6.353-3.518,12.758-6.448,19.21-8.793c6.452-2.345,11.241-3.517,14.371-3.517c0.192,0-0.146,0.879-1.027,2.638
				c-0.88,1.758-1.318,4.982-1.318,9.672c0,5.275,0.046,10.404,0.146,15.387c0.098,4.982,0.146,10.162,0.146,15.533
				c0,5.376,0.046,11.138,0.146,17.292c0.098,6.155,0.147,13.043,0.147,20.663s-0.052,15.094-0.147,22.421
				c-0.101,7.327-0.247,13.973-0.438,19.93c-0.197,5.963-0.49,10.944-0.88,14.947c-0.395,4.008-0.881,6.596-1.468,7.768
				c0.779,0.979,2.833,2.542,6.159,4.688c3.322,2.152,7.085,4.351,11.292,6.595c4.202,2.248,8.309,4.199,12.317,5.861
				c4.006,1.658,6.988,2.491,8.945,2.491h19.062c2.149,0,6.013-0.687,11.585-2.052c5.572-1.369,11.291-3.37,17.157-6.008
				c5.865-2.639,11.095-6.056,15.689-10.258c4.592-4.199,6.894-9.035,6.894-14.509c0-1.759-0.396-4.104-1.173-7.034
				c-0.784-2.931-1.812-5.906-3.08-8.938c-1.273-3.026-2.641-5.861-4.106-8.499c-1.466-2.638-2.785-4.442-3.959-5.422
				c-4.5-3.71-9.046-6.691-13.638-8.939c-4.596-2.244-9.531-4.149-14.812-5.715c6.255-2.345,12.512-6.009,18.771-10.991
				C1426.161,108.316,1431.784,102.798,1436.77,96.739z M1402.896,140.702c3.908,2.931,7.332,6.059,10.265,9.379
				c2.933,3.325,4.399,6.448,4.399,9.379c0,4.104-1.422,7.767-4.254,10.99c-2.836,3.225-6.157,5.911-9.972,8.061
				c-3.812,2.152-7.625,3.765-11.438,4.837c-3.812,1.075-6.796,1.61-8.944,1.61l-5.866,0.587c-3.326,0-6.012-0.779-8.064-2.345
				c-2.054-1.562-3.666-3.468-4.84-5.716c-1.173-2.244-1.957-4.588-2.346-7.034c-0.395-2.44-0.587-4.64-0.587-6.595
				c0-3.319,0.046-6.74,0.146-10.258c0.097-3.518,0.243-6.787,0.439-9.819c0.191-3.026,0.39-5.518,0.586-7.473
				c0.192-1.951,0.391-3.027,0.587-3.225c0.391-0.389,2.735-0.879,7.038-1.465c4.299-0.587,8.698-0.88,13.198-0.88
				c1.76,0,4.495,0.93,8.212,2.784C1395.169,135.381,1398.98,137.771,1402.896,140.702z M1408.761,95.567
				c-6.062,5.669-12.464,10.212-19.21,13.628c-6.745,3.421-12.564,5.13-17.449,5.13c-5.478,0-8.652-0.243-9.532-0.733
				c-0.88-0.485-1.319-1.511-1.319-3.077V52.777c0-4.296-0.197-7.666-0.587-10.112c-0.394-2.44-0.88-4.295-1.466-5.568
				c-0.587-1.269-1.225-2.198-1.907-2.784c-0.687-0.586-1.223-1.172-1.612-1.759c2.735-0.389,5.427-0.586,8.065-0.586h17.45
				c16.227,0,28.545,1.516,36.953,4.543c8.404,3.031,12.611,8.843,12.611,17.438c0,7.62-2.154,15.048-6.453,22.274
				C1420.002,83.455,1414.819,89.902,1408.761,95.567z M1907.136,166.934c-4.596-4.199-9.678-8.449-15.251-12.748
				c-5.572-4.297-10.658-8.597-15.25-12.896c-4.597-4.296-6.893-8.399-6.893-12.31c0-4.493,1.365-8.743,4.104-12.75
				c2.736-4.002,7.525-6.008,14.371-6.008c1.366,0,2.59,0.344,3.666,1.025c1.073,0.688,2.101,1.466,3.08,2.345
				c0.976,0.88,1.856,1.662,2.64,2.345c0.779,0.688,1.562,1.026,2.348,1.026c2.734,0,4.984-0.829,6.745-2.491
				c1.76-1.658,3.176-3.563,4.253-5.716c1.072-2.147,1.854-4.346,2.346-6.594c0.486-2.244,0.733-3.957,0.733-5.129
				c0-3.907-1.663-6.545-4.985-7.914c-3.327-1.364-6.648-2.052-9.973-2.052c-3.52,0-8.408,0.587-14.664,1.759
				c-6.26,1.173-12.368,3.128-18.33,5.862c-5.967,2.738-11.145,6.447-15.544,11.137c-4.399,4.69-6.599,10.455-6.599,17.292
				c0,4.887,1.121,9.379,3.371,13.482c2.246,4.103,5.082,7.867,8.507,11.283c3.418,3.421,7.084,6.596,10.998,9.525
				c3.909,2.931,7.574,5.766,10.998,8.5c3.419,2.738,6.255,5.376,8.505,7.912c2.246,2.541,3.373,5.181,3.373,7.914
				c0,2.738-1.319,4.644-3.959,5.715c-2.641,1.076-4.743,1.611-6.307,1.611c-3.52,0-6.648-0.777-9.386-2.345
				c-2.74-1.562-5.231-3.224-7.479-4.981c-2.25-1.76-4.399-3.416-6.452-4.982c-2.053-1.562-4.156-2.345-6.307-2.345
				c-0.894,0-1.804,0.159-2.727,0.444c0.876-2.047,1.633-4.146,2.26-6.307c1.761-6.055,2.641-11.527,2.641-16.413v-2.052
				c0-3.32-1.467-4.982-4.398-4.982c-1.37,0-2.348,0.49-2.934,1.466c-0.587,0.979-1.174,2.834-1.761,5.567
				c-0.782,4.104-1.81,8.353-3.079,12.749c-1.273,4.396-3.078,8.354-5.426,11.87c-2.347,3.517-5.329,6.401-8.945,8.646
				c-3.619,2.25-8.263,3.371-13.931,3.371c-4.105,0-7.58-0.925-10.412-2.783c-2.836-1.854-5.132-4.004-6.892-6.448
				c-1.76-2.44-3.08-4.933-3.96-7.474c-0.88-2.537-1.319-4.492-1.319-5.861v-8.5c1.365,0.395,2.786,0.688,4.253,0.88
				c1.466,0.196,2.686,0.293,3.666,0.293c5.472,0,10.36-1.612,14.664-4.836c4.298-3.226,7.919-7.228,10.853-12.017
				c2.933-4.786,5.178-9.965,6.745-15.533c1.562-5.569,2.347-10.698,2.347-15.388l-0.294-4.103c-0.196-3.32-0.979-6.545-2.346-9.672
				c-1.37-3.123-3.228-5.862-5.572-8.207c-2.347-2.345-5.087-4.249-8.212-5.715c-3.13-1.466-6.452-2.198-9.973-2.198
				c-7.235,0-13.396,2.396-18.478,7.181c-5.086,4.79-9.289,10.748-12.611,17.878c-3.325,7.135-5.77,14.801-7.332,23.008
				c-1.566,8.206-2.346,15.73-2.346,22.567c0,7.034,0.733,13.729,2.199,20.076c1.467,6.353,3.909,11.87,7.332,16.56
				c3.419,4.689,7.771,8.403,13.052,11.137c5.279,2.734,11.73,4.104,19.356,4.104c8.015,0,14.906-1.759,20.677-5.274
				c5.765-3.519,10.508-7.863,14.225-13.043c0.572-0.799,1.112-1.609,1.64-2.429c0.518,2.345,1.733,4.376,3.666,6.093
				c2.64,2.345,5.865,4.152,9.679,5.422c3.812,1.272,7.722,2.197,11.73,2.783c4.006,0.586,7.379,0.881,10.118,0.881
				c1.761,0,4.644-0.146,8.652-0.44c4.005-0.293,8.015-1.024,12.024-2.197c4.005-1.173,7.574-3.026,10.704-5.569
				c3.125-2.537,4.692-6.153,4.692-10.844C1914.028,175.189,1911.729,171.139,1907.136,166.934z M1790.969,139.823
				c0-1.364,0.391-4.25,1.174-8.646c0.778-4.396,2.002-8.984,3.666-13.774c1.658-4.786,3.763-9.035,6.306-12.749
				c2.539-3.71,5.573-5.569,9.092-5.569c2.347,0,3.96,0.88,4.84,2.638c0.88,1.759,1.319,3.421,1.319,4.982v1.759
				c0,2.738-0.395,6.256-1.173,10.552c-0.783,4.3-2.007,8.499-3.666,12.603c-1.664,4.103-3.863,7.62-6.6,10.551
				c-2.739,2.931-6.062,4.396-9.972,4.396h-1.467c-1.761,0-2.786-0.536-3.079-1.612c-0.294-1.071-0.44-2.491-0.44-4.25V139.823z
				 M1762.994,200.052c-3.033-1.075-5.426-1.61-7.187-1.61c-0.196,0-0.489,0.045-0.88,0.146c-0.395,0.097-0.783,0.146-1.173,0.146
				h-1.174c-0.196-2.733-0.293-6.199-0.293-10.403v-10.111c0-3.319,0.046-7.079,0.146-11.284c0.098-4.199,0.243-8.303,0.44-12.31
				c0.192-4.003,0.485-7.717,0.88-11.138c0.391-3.416,0.88-5.907,1.467-7.474c0.191-0.389,0.732-1.318,1.612-2.784
				c0.88-1.465,1.319-2.391,1.319-2.784c0-1.562-0.586-2.587-1.76-3.077c-1.173-0.485-2.475-0.925-3.903-1.319
				c-1.431-0.389-2.704-0.879-3.813-1.465c-1.113-0.587-1.668-1.658-1.668-3.225c0-3.906,0.243-7.13,0.733-9.672
				c0.485-2.536,0.733-5.371,0.733-8.499c0-4.492-0.688-8.252-2.062-11.284c-1.375-3.026-3.235-5.468-5.591-7.327
				c-2.355-1.854-5.201-3.37-8.537-4.542c-3.336-1.173-6.97-2.148-10.893-2.932c-0.788-0.192-1.916-0.632-3.388-1.318
				c-1.476-0.683-2.945-1.365-4.418-2.052c-1.471-0.683-2.845-1.318-4.119-1.905c-1.277-0.586-2.31-0.879-3.094-0.879
				c-7.064,0-12.904,2.592-17.515,7.767c-4.614,5.18-8.294,11.824-11.039,19.93c-2.75,8.11-4.66,17.05-5.742,26.817
				c-0.405,3.674-0.711,7.292-0.963,10.882c-0.172,0.632-0.307,1.3-0.395,2.014c-1.762,14.068-4.062,24.376-6.894,30.921
				c-2.837,6.549-7.089,9.818-12.758,9.818c-2.543,0-4.5-1.123-5.866-3.371c-1.37-2.244-2.396-5.275-3.079-9.086
				c-0.688-3.811-1.127-8.207-1.319-13.188c-0.196-4.981-0.293-10.207-0.293-15.68V108.17c0-13.481,0.293-26.181,0.88-38.101
				c0.587-11.916,1.173-22.422,1.76-31.507c0.587-9.086,1.173-16.459,1.76-22.128c0.588-5.665,0.881-9.086,0.881-10.259
				c0-2.733-1.225-4.441-3.666-5.129c-2.447-0.682-5.916-1.025-10.412-1.025c-2.74,0-5.72,0.197-8.944,0.586
				c-3.228,0.395-6.503,1.076-9.825,2.052c0.778,1.173,1.466,2.542,2.053,4.104c0.588,1.566,1.123,3.617,1.613,6.154
				c0.485,2.542,0.829,5.619,1.026,9.232c0.192,3.618,0.293,7.964,0.293,13.042v9.672c0,4.301-0.051,8.939-0.146,13.922
				c-0.101,4.982-0.196,10.016-0.293,15.094c-0.102,5.083-0.248,9.379-0.439,12.896c-1.956-0.778-5.133-1.95-9.531-3.517
				c-4.399-1.562-8.944-2.345-13.639-2.345c-4.304,0-8.166,1.566-11.584,4.689c-3.424,3.128-6.452,7.034-9.093,11.724
				c-2.64,4.69-4.89,9.868-6.745,15.533c-1.86,5.669-3.423,11.092-4.692,16.267c-1.274,5.179-2.199,9.722-2.786,13.628
				c-0.586,3.911-0.88,6.448-0.88,7.62v4.981c0,2.152,0.097,5.129,0.294,8.939c0.062,1.191,0.187,2.405,0.343,3.627
				c-0.592,1.737-1.238,3.46-1.954,5.165c-1.272,3.032-2.836,5.716-4.691,8.062c-1.86,2.345-3.959,3.517-6.307,3.517
				c-2.152,0-3.913-0.925-5.278-2.784c-1.37-1.854-2.396-4.199-3.079-7.033c-0.688-2.83-1.173-5.861-1.468-9.087
				c-0.293-3.224-0.438-6.2-0.438-8.938c0-5.468,0.192-10.157,0.586-14.068c0.39-3.906,1.563-8.398,3.521-13.481V128.1
				c0-1.364-0.439-2.491-1.319-3.37c-0.88-0.88-1.906-1.562-3.08-2.052c-1.173-0.485-2.199-0.925-3.079-1.319
				c-0.88-0.389-1.318-0.682-1.318-0.879c-0.588-3.906-0.784-7.863-0.588-11.87c0.192-4.002,0.047-7.862-0.439-11.576
				c-0.49-3.71-1.566-7.181-3.226-10.405c-1.663-3.224-4.546-6.008-8.652-8.353c-3.716-0.586-6.599-1.365-8.651-2.345
				c-2.053-0.976-3.959-1.905-5.72-2.784c-1.759-0.88-3.665-1.658-5.719-2.345c-2.053-0.683-5.036-1.026-8.945-1.026
				c-6.648,0-12.316,2.396-17.01,7.181c-4.693,4.79-8.506,11.238-11.438,19.344c-2.933,8.11-5.035,17.438-6.306,27.99
				c-1.274,10.551-1.906,21.688-1.906,33.411c0,4.887,0.439,10.11,1.319,15.681c0.88,5.568,2.296,10.697,4.253,15.387
				c1.952,4.689,4.546,8.545,7.772,11.578c3.226,3.025,7.185,4.541,11.878,4.541c1.562,0,2.786,0.098,3.666,0.295
				c0.88,0.19,1.659,0.438,2.346,0.731c0.684,0.293,1.32,0.535,1.907,0.731c0.586,0.192,1.466,0.293,2.639,0.293
				c4.106,0,7.672-1.223,10.705-3.662c3.029-2.445,5.719-5.424,8.064-8.939c2.347-3.516,4.3-7.327,5.866-11.431
				c1.562-4.104,2.934-7.716,4.105-10.845c0.976,8.207,3.666,14.56,8.064,19.052c4.399,4.497,9.532,6.739,15.397,6.739
				c3.909,0,7.479-1.172,10.705-3.517c3.226-2.345,6.059-5.226,8.505-8.646c1.037-1.451,1.978-2.937,2.855-4.44
				c1.018,2.344,2.259,4.655,3.74,6.933c2.539,3.909,6.058,7.032,10.558,9.377c3.126,1.562,6.109,2.881,8.946,3.957
				c2.831,1.071,5.719,1.612,8.651,1.612c4.298,0,7.816-1.026,10.559-3.078c2.735-2.051,5.031-4.588,6.893-7.62
				c1.855-3.025,3.321-6.396,4.398-10.11c1.072-3.71,2.003-7.13,2.786-10.259l0.293-1.465c2.539,8.207,5.72,14.266,9.532,18.172
				c3.812,3.91,9.921,5.86,18.33,5.86c5.669,0,10.508-1.657,14.518-4.981c4.006-3.32,7.23-7.424,9.679-12.311
				c0.237-0.475,0.443-0.966,0.67-1.447c0.817,5.59,2.175,10.476,4.084,14.637c2.062,4.498,4.908,8.01,8.548,10.552
				c3.634,2.537,8.201,4.002,13.705,4.396c2.158,0,3.826,0.293,5.01,0.879c1.178,0.586,2.553,0.879,4.129,0.879
				c2.941,0,5.596-1.024,7.955-3.076c2.354-2.053,4.468-4.446,6.338-7.182c1.865-2.732,3.487-5.613,4.862-8.646
				c1.375-3.027,2.552-5.423,3.538-7.181c0,4.3-0.103,8.498-0.295,12.603c-0.196,4.103,0.084,8.052-0.306,12.154l-0.545,1.708
				c-2.725,0.604-5.313,1.185-8.635,2.938c-10.331,5.43-18.414,13.887-24.256,18.85c-10.787,10.309-24.419,32.408-8.125,51.019
				c14.09,16.093,43.529,13.261,49.471,4.485c4.221-6.245,8.639-11.9,10.467-20.014c1.633-7.244,4.694-22.563,4.694-30.574
				c0-8.014,0.01-14.188-0.184-19.463l0.293-3.518c0-1.172,0.486-1.759,1.468-1.759l5.864,0.587c1.563,0,3.228-0.395,4.986-1.173
				c1.76-0.783,2.64-2.152,2.64-4.104C1767.54,202.734,1766.023,201.124,1762.994,200.052z M1514.11,120.479
				c0,0.394-0.688,1.025-2.054,1.905c-1.369,0.879-2.25,2.981-2.64,6.301c-0.587,6.256-1.224,13.144-1.906,20.663
				c-0.688,7.523-1.811,14.559-3.373,21.103c-1.566,6.549-3.862,12.017-6.892,16.413c-3.034,4.396-7.383,6.595-13.052,6.595
				c-2.347,0-4.252-1.365-5.72-4.104c-1.467-2.732-2.594-6.054-3.373-9.965c-0.782-3.906-1.318-8.06-1.612-12.455
				c-0.293-4.396-0.439-8.156-0.439-11.285c0-4.103,0.293-9.716,0.88-16.852c0.587-7.131,1.855-14.068,3.812-20.81
				c1.952-6.741,4.643-12.603,8.064-17.585c3.418-4.982,7.868-7.474,13.346-7.474c3.321,0,5.962,0.879,7.918,2.638
				c1.951,1.759,3.418,3.911,4.398,6.448c0.978,2.541,1.659,5.275,2.053,8.206c0.392,2.931,0.588,5.473,0.588,7.62L1514.11,120.479
				L1514.11,120.479z M1617.056,115.204c-0.196,3.128-0.587,7.281-1.169,12.456c-0.582,5.18-1.405,10.651-2.47,16.413
				c-1.067,5.766-2.328,11.575-3.78,17.438c-1.457,5.861-3.057,11.138-4.803,15.826s-3.685,8.5-5.814,11.431
				c-2.137,2.932-4.465,4.396-6.983,4.396c-2.328,0-4.171-0.977-5.527-2.932c-1.355-1.95-2.424-4.295-3.197-7.033
				c-0.779-2.734-1.266-5.665-1.457-8.793c-0.192-3.123-0.289-5.861-0.289-8.206c0-6.251,0.48-13.382,1.453-21.396
				c0.971-8.01,2.474-15.533,4.509-22.567c2.034-7.034,4.56-12.941,7.566-17.731c3.006-4.786,6.446-7.181,10.323-7.181
				c0.973,0,2.136,0.293,3.492,0.879s2.662,1.273,3.927,2.052c1.262,0.783,2.328,1.566,3.198,2.345
				c0.871,0.783,1.312,1.465,1.312,2.052L1617.056,115.204z M1729.119,239.912c-2.881,16.936-9.118,38.518-18.414,38.659
				c-22.915,0.351-18.537-25.321-14.956-31.878c3.487-6.383,7.003-12.534,12.573-18.291c2.714-2.805,13.248-11.686,20.797-12.377
				C1729.119,225.99,1730.12,234.034,1729.119,239.912z M1729.825,120.187c-0.312,2.152-1.091,4.007-2.337,5.568
				c-0.417,0.587-0.834,1.905-1.246,3.957c-0.417,2.052-0.729,5.912-0.937,11.577c-0.196,4.103-0.834,8.938-1.905,14.507
				c-1.076,5.569-2.641,10.945-4.692,16.12c-2.053,5.18-4.646,9.525-7.772,13.042c-3.13,3.519-6.744,5.274-10.852,5.274
				c-2.346,0-4.252-1.172-5.719-3.517s-2.543-5.274-3.228-8.793c-0.687-3.517-1.173-7.474-1.466-11.869s-0.439-8.646-0.439-12.75
				c0-9.768,0.737-18.51,2.214-26.229c1.476-7.717,3.445-14.261,5.906-19.637c2.462-5.372,5.315-9.525,8.569-12.456
				c3.249-2.932,6.745-4.396,10.484-4.396c2.759,0,5.072,0.833,6.942,2.491c1.869,1.662,3.299,3.714,4.284,6.154
				c0.98,2.446,1.673,5.033,2.066,7.768c0.395,2.738,0.592,5.179,0.592,7.327C1730.293,116.083,1730.137,118.039,1729.825,120.187z"
				/>
		</g>
	</g>
</g>
</svg>
