<svg width="801" height="290" viewBox="0 0 801 290" xmlns="http://www.w3.org/2000/svg" xmlns:xlink="http://www.w3.org/1999/xlink"><title>website-title</title><defs><path id="a" d="M0 0h308v308H0z"/></defs><g fill="none" fill-rule="evenodd"><g transform="translate(0 -9)"><mask id="b" fill="#fff"><use xlink:href="#a"/></mask><path d="M114.744 182.15h-.614l6.757-40.244c5.222-.614 7.68-1.536 10.137-3.993l-27.338-21.2L91.7 129.922h-3.379l7.373-38.402c5.533-.614 7.99-1.536 10.448-3.993l-27.957-21.81-12.287 13.21H33.64c9.522-16.588 17.509-33.18 24.267-49.153 8.298.921 11.37-1.23 13.213-4.915L28.419 9.189c-7.373 22.12-16.9 45.777-29.186 69.737h-116.74l1.842 6.144H-3.839C-33.025 140.985-75.42 197.816-129.18 237.754l3.071 3.686a360.61 360.61 0 0 0 74.653-53.453H117.51c-4.3 43.316-11.366 70.348-19.357 76.495-3.072 2.15-5.53 2.15-10.444 2.15-6.758 0-25.188-.306-34.715-.92l-.307 4.607c26.421 4.3 29.186 11.058 29.186 27.953 38.708 0 56.525-10.751 65.744-102.913 5.837-.921 9.83-2.457 11.98-5.222l-31.643-23.964-13.21 15.978zm-28.879 0H-45.312c15.358-14.748 29.186-30.414 41.473-46.387h97.383l-7.679 46.388zm-27.339-52.228H.768c10.752-14.745 20.586-29.796 29.494-44.852h37.172l-8.908 44.852zm-15.363 74.345c11.058 8.294 21.507 23.657 24.579 36.559 3.686 3.071 7.372 4.3 10.75 4.3 7.987 0 15.052-7.372 15.052-15.973 0-11.37-11.98-25.193-48.538-27.343l-1.843 2.457zM-80.027 12.265C-68.663 25.78-60.365 48.51-60.365 66.639c4.608 5.53 9.83 7.68 14.744 7.68 10.137 0 19.045-8.909 19.045-20.581 0-13.828-12.594-31.644-50.995-43.317l-2.458 1.844zm79.26 198.453c9.215 11.677 16.28 31.03 15.973 46.08 3.997 4.613 8.605 6.763 12.905 6.763 8.601 0 16.588-7.991 16.588-18.128 0-11.673-10.444-26.724-42.395-36.558l-3.071 1.843zm-38.095 4.915c1.843 6.455 2.765 14.134 2.765 22.428 0 10.751-1.536 22.121-4.915 31.336 3.379 7.065 8.908 10.137 14.745 10.137 9.834 0 19.663-9.215 19.663-23.042 0-11.673-7.372-26.725-28.572-42.088l-3.686 1.229zm-32.565 2.15c0 17.82-13.208 32.258-25.803 37.173-7.372 3.379-13.827 9.526-13.827 17.206 0 7.986 6.148 14.744 17.82 14.744 17.51 0 31.951-15.666 31.951-40.551 0-8.601-1.843-18.124-5.529-28.875l-4.612.303zm412.235-160.36c18.128 0 21.2 1.23 27.957 39.324h15.052l-7.372-55.3h-168.35l-7.372 55.3h15.363c6.45-37.787 9.215-39.323 27.646-39.323h29.8v175.415c0 22.731-1.536 25.496-28.265 25.496v12.291h94.312v-12.291c-27.031 0-28.567-2.765-28.567-25.496V57.424h29.796" fill="#FF4525" mask="url(#b)"/></g><path d="M440.457 41.411c-3.179-2.583-6.357-4.495-9.536-5.736-3.179-1.242-6.258-1.863-9.238-1.863-3.775 0-6.854.894-9.238 2.682-2.384 1.788-3.576 4.122-3.576 7.003 0 1.987.596 3.626 1.788 4.917 1.192 1.291 2.756 2.409 4.694 3.352 1.937.944 4.122 1.764 6.555 2.459a174.08 174.08 0 0 1 7.227 2.235c9.536 3.179 16.514 7.425 20.935 12.74 4.42 5.314 6.63 12.242 6.63 20.785 0 5.761-.968 10.976-2.905 15.645-1.938 4.669-4.768 8.667-8.493 11.995-3.726 3.327-8.295 5.91-13.709 7.748-5.413 1.837-11.547 2.756-18.401 2.756-14.205 0-27.366-4.222-39.485-12.665l12.516-23.542c4.37 3.874 8.692 6.755 12.963 8.642 4.271 1.887 8.493 2.831 12.665 2.831 4.768 0 8.32-1.093 10.654-3.278 2.334-2.185 3.501-4.669 3.501-7.45 0-1.689-.298-3.154-.894-4.395-.596-1.242-1.59-2.384-2.98-3.428-1.39-1.043-3.203-2.011-5.438-2.905-2.236-.894-4.942-1.887-8.121-2.98a163.028 163.028 0 0 1-11.1-3.949c-3.626-1.44-6.854-3.352-9.685-5.736-2.832-2.384-5.116-5.389-6.854-9.014-1.739-3.626-2.608-8.22-2.608-13.783 0-5.563.919-10.604 2.756-15.123 1.838-4.52 4.42-8.394 7.749-11.623 3.327-3.228 7.4-5.736 12.217-7.524 4.818-1.788 10.207-2.682 16.167-2.682 5.563 0 11.374.77 17.433 2.31a76.89 76.89 0 0 1 17.433 6.779l-11.622 22.797zm84.242 45.594c0-2.384-.423-4.644-1.267-6.78a16.269 16.269 0 0 0-3.65-5.587c-1.59-1.59-3.452-2.856-5.588-3.8-2.136-.943-4.445-1.415-6.928-1.415-2.385 0-4.62.447-6.705 1.341a16.58 16.58 0 0 0-5.439 3.725c-1.54 1.59-2.781 3.452-3.725 5.587a16.589 16.589 0 0 0-1.415 6.78c0 2.384.447 4.619 1.34 6.705a16.58 16.58 0 0 0 3.726 5.438c1.589 1.54 3.451 2.782 5.587 3.726a16.589 16.589 0 0 0 6.78 1.415c2.384 0 4.618-.447 6.705-1.341a16.58 16.58 0 0 0 5.438-3.725 19.26 19.26 0 0 0 3.725-5.513 15.73 15.73 0 0 0 1.416-6.556zm-33.972 76.139h-26.97V48.563h26.97v8.493c5.76-7.251 13.608-10.877 23.542-10.877 5.463 0 10.554 1.068 15.272 3.203 4.718 2.136 8.816 5.042 12.293 8.717 3.476 3.675 6.183 7.996 8.12 12.963 1.937 4.967 2.906 10.281 2.906 15.943 0 5.662-.969 10.927-2.906 15.794-1.937 4.867-4.619 9.139-8.046 12.814-3.427 3.675-7.475 6.556-12.143 8.642-4.67 2.086-9.735 3.129-15.198 3.129-9.537 0-17.483-3.278-23.84-9.834v45.594zm93.777-76.586c0 2.483.447 4.793 1.341 6.928.894 2.136 2.11 3.999 3.65 5.588 1.54 1.59 3.378 2.831 5.514 3.725 2.135.894 4.445 1.341 6.928 1.341 2.384 0 4.644-.447 6.78-1.341 2.135-.894 3.973-2.136 5.513-3.725a19.26 19.26 0 0 0 3.725-5.513c.943-2.086 1.415-4.321 1.415-6.705 0-2.384-.472-4.644-1.415-6.78-.944-2.135-2.186-3.998-3.725-5.587-1.54-1.59-3.378-2.831-5.513-3.725-2.136-.894-4.396-1.341-6.78-1.341-2.483 0-4.793.447-6.928 1.341-2.136.894-3.974 2.136-5.513 3.725a18.36 18.36 0 0 0-3.651 5.438c-.894 2.037-1.341 4.247-1.341 6.631zm33.972-37.995h27.118V125h-27.118v-8.493c-5.761 7.251-13.559 10.877-23.393 10.877-5.563 0-10.678-1.018-15.347-3.055a37.011 37.011 0 0 1-12.218-8.567c-3.477-3.675-6.183-7.996-8.12-12.963-1.937-4.967-2.906-10.38-2.906-16.241 0-5.463.944-10.653 2.831-15.57 1.887-4.918 4.52-9.214 7.897-12.889 3.377-3.675 7.4-6.58 12.069-8.717 4.669-2.135 9.834-3.203 15.496-3.203 9.536 0 17.433 3.328 23.691 9.983v-7.599zm94.374 24.734c-4.67-3.179-9.387-4.768-14.155-4.768-2.583 0-4.992.447-7.227 1.341a17.91 17.91 0 0 0-5.885 3.8c-1.69 1.639-3.005 3.575-3.949 5.81-.944 2.236-1.415 4.744-1.415 7.525 0 2.682.471 5.14 1.415 7.376.944 2.235 2.235 4.171 3.874 5.81 1.639 1.64 3.6 2.906 5.886 3.8 2.284.894 4.718 1.341 7.3 1.341 5.067 0 9.785-1.738 14.156-5.215v22.946c-6.656 2.88-12.963 4.321-18.923 4.321-5.563 0-10.853-.944-15.869-2.831s-9.437-4.594-13.261-8.12c-3.824-3.527-6.879-7.748-9.163-12.666-2.285-4.917-3.427-10.405-3.427-16.464 0-6.06 1.092-11.597 3.278-16.614 2.185-5.016 5.165-9.337 8.94-12.962 3.774-3.626 8.269-6.457 13.484-8.493 5.215-2.037 10.802-3.055 16.763-3.055 6.556 0 12.615 1.39 18.178 4.172v22.946zm62.487 2.384c-.894-3.775-2.732-6.804-5.513-9.089-2.781-2.285-6.159-3.427-10.132-3.427-4.172 0-7.574 1.093-10.206 3.278-2.633 2.185-4.297 5.265-4.992 9.238h30.843zm-31.588 15.645c0 11.622 5.463 17.433 16.39 17.433 5.86 0 10.281-2.384 13.261-7.152h26.075c-5.265 17.483-18.426 26.224-39.485 26.224-6.457 0-12.367-.968-17.731-2.906-5.364-1.937-9.958-4.693-13.782-8.269-3.825-3.576-6.78-7.847-8.866-12.814-2.086-4.967-3.129-10.53-3.129-16.688 0-6.357.993-12.094 2.98-17.21 1.987-5.115 4.818-9.461 8.493-13.037 3.675-3.576 8.12-6.332 13.336-8.27 5.215-1.937 11.1-2.905 17.656-2.905 6.457 0 12.268.968 17.433 2.906 5.165 1.937 9.536 4.743 13.112 8.418 3.576 3.675 6.308 8.17 8.195 13.484 1.887 5.315 2.831 11.3 2.831 17.955v2.831h-56.769zm-335.774 76.328v87.612h35.015V280h-64.219V167.654h29.204zm64.276 73.755c0 2.583.471 4.942 1.415 7.077.944 2.136 2.185 3.999 3.725 5.588 1.54 1.59 3.377 2.831 5.513 3.725 2.136.894 4.395 1.341 6.78 1.341 2.384 0 4.643-.447 6.779-1.341 2.136-.894 3.973-2.136 5.513-3.725 1.54-1.59 2.781-3.452 3.725-5.588.944-2.135 1.416-4.445 1.416-6.928 0-2.384-.472-4.644-1.416-6.78-.944-2.135-2.185-3.998-3.725-5.587-1.54-1.59-3.377-2.831-5.513-3.725-2.136-.894-4.395-1.341-6.78-1.341-2.384 0-4.643.447-6.779 1.341-2.136.894-3.973 2.136-5.513 3.725a19.26 19.26 0 0 0-3.725 5.513c-.944 2.086-1.415 4.321-1.415 6.705zm-28.46-.298c0-5.662 1.143-10.951 3.428-15.868 2.284-4.918 5.463-9.189 9.536-12.814 4.072-3.626 8.915-6.482 14.527-8.568 5.612-2.086 11.746-3.129 18.402-3.129 6.556 0 12.64 1.018 18.252 3.054 5.612 2.037 10.48 4.868 14.602 8.494a38.08 38.08 0 0 1 9.61 12.963c2.285 5.016 3.428 10.554 3.428 16.613 0 6.06-1.168 11.597-3.502 16.613-2.334 5.017-5.538 9.338-9.61 12.964-4.073 3.625-8.965 6.431-14.677 8.418-5.712 1.987-11.895 2.98-18.55 2.98-6.557 0-12.616-.993-18.178-2.98-5.563-1.987-10.356-4.818-14.379-8.493-4.023-3.675-7.177-8.07-9.461-13.187-2.285-5.115-3.427-10.802-3.427-17.06zm115.83-37.548l18.178 39.187 18.476-39.187h30.098L586.59 280h-18.029l-39.336-76.437h30.396zm119.555 27.118c-.894-3.775-2.732-6.804-5.513-9.089-2.782-2.285-6.16-3.427-10.132-3.427-4.172 0-7.575 1.093-10.207 3.278-2.632 2.185-4.296 5.265-4.991 9.238h30.843zm-31.588 15.645c0 11.622 5.463 17.433 16.39 17.433 5.86 0 10.28-2.384 13.26-7.152h26.076c-5.265 17.483-18.427 26.224-39.485 26.224-6.457 0-12.367-.968-17.731-2.906-5.365-1.937-9.959-4.693-13.783-8.269-3.824-3.576-6.78-7.847-8.865-12.814-2.086-4.967-3.13-10.53-3.13-16.688 0-6.357.994-12.094 2.98-17.21 1.987-5.115 4.818-9.461 8.494-13.037 3.675-3.576 8.12-6.332 13.335-8.27 5.215-1.937 11.1-2.905 17.657-2.905 6.456 0 12.267.968 17.433 2.905 5.165 1.938 9.536 4.744 13.112 8.419 3.576 3.675 6.307 8.17 8.195 13.484 1.887 5.315 2.83 11.3 2.83 17.955v2.831h-56.768zm63.381-42.763h26.969v12.516c2.88-4.57 6.407-8.07 10.579-10.505 4.172-2.433 9.04-3.65 14.602-3.65h2.31c.844 0 1.812.1 2.905.298v25.777c-3.576-1.788-7.45-2.682-11.622-2.682-6.258 0-10.951 1.862-14.08 5.588-3.13 3.725-4.694 9.163-4.694 16.315V280h-26.969v-76.437z" fill="#FF4525"/></g></svg>